<svg width="58" height="58" viewBox="0 0 58 58" fill="none" xmlns="http://www.w3.org/2000/svg">
<path d="M28.5693 0C44.5856 0 57.5693 12.9837 57.5693 29C57.5693 45.0163 44.5856 58 28.5693 58C19.3542 58 11.144 53.7009 5.83203 47H17.5693C20.3308 47 22.5693 44.7614 22.5693 42C22.5693 39.2386 20.3308 37 17.5693 37H0.6875C0.406905 36.0202 0.177139 35.0192 0 34H32.5693C35.3308 34 37.5693 31.7614 37.5693 29C37.5693 26.2386 35.3308 24 32.5693 24H0C0.177139 22.9808 0.406905 21.9798 0.6875 21H23.5693C26.3308 21 28.5693 18.7614 28.5693 16C28.5693 13.2386 26.3308 11 23.5693 11H5.83203C11.144 4.29906 19.3542 0 28.5693 0Z" fill="#00B121"/>
</svg>
