<svg xmlns="http://www.w3.org/2000/svg" width="48" height="48" viewBox="0 0 24 24"><g fill="none"><path fill="url(#fluentColorContactCard240)" d="M19.75 4A2.25 2.25 0 0 1 22 6.25v11.505a2.25 2.25 0 0 1-2.25 2.25H4.25A2.25 2.25 0 0 1 2 17.755V6.25A2.25 2.25 0 0 1 4.25 4z"/><path fill="url(#fluentColorContactCard241)" fill-opacity="0.7" d="M19.75 4A2.25 2.25 0 0 1 22 6.25v11.505a2.25 2.25 0 0 1-2.25 2.25H4.25A2.25 2.25 0 0 1 2 17.755V6.25A2.25 2.25 0 0 1 4.25 4z"/><path fill="url(#fluentColorContactCard242)" d="M13.252 12.996h4.498a.75.75 0 0 1 .102 1.493l-.102.007h-4.498a.75.75 0 0 1-.101-1.493zh4.498zm0-3.496h4.498a.75.75 0 0 1 .102 1.493L17.75 11h-4.498a.75.75 0 0 1-.101-1.493zh4.498z"/><path fill="url(#fluentColorContactCard243)" d="M9.75 12.5a.75.75 0 0 1 .75.75v.493l-.008.108c-.163 1.113-1.094 1.65-2.492 1.65s-2.33-.537-2.492-1.65l-.008-.11v-.491a.75.75 0 0 1 .75-.75z"/><path fill="url(#fluentColorContactCard244)" d="M8 8.502a1.5 1.5 0 1 1 0 3a1.5 1.5 0 0 1 0-3"/><defs><linearGradient id="fluentColorContactCard240" x1="9.143" x2="14.312" y1="4" y2="19.95" gradientUnits="userSpaceOnUse"><stop stop-color="#b3e0ff"/><stop offset="1" stop-color="#8cd0ff"/></linearGradient><linearGradient id="fluentColorContactCard241" x1="15.095" x2="19.486" y1="5.965" y2="28.797" gradientUnits="userSpaceOnUse"><stop offset=".447" stop-color="#ff6ce8" stop-opacity="0"/><stop offset="1" stop-color="#ff6ce8"/></linearGradient><linearGradient id="fluentColorContactCard242" x1="14.956" x2="17.097" y1="8.924" y2="18.686" gradientUnits="userSpaceOnUse"><stop stop-color="#0078d4"/><stop offset="1" stop-color="#0067bf"/></linearGradient><linearGradient id="fluentColorContactCard243" x1="5.5" x2="6.693" y1="10.678" y2="15.92" gradientUnits="userSpaceOnUse"><stop offset=".125" stop-color="#9c6cfe"/><stop offset="1" stop-color="#7a41dc"/></linearGradient><linearGradient id="fluentColorContactCard244" x1="6.5" x2="8.742" y1="7.502" y2="11.342" gradientUnits="userSpaceOnUse"><stop offset=".125" stop-color="#9c6cfe"/><stop offset="1" stop-color="#7a41dc"/></linearGradient></defs></g></svg>