<svg width="785" height="836" viewBox="0 0 785 836" fill="none" xmlns="http://www.w3.org/2000/svg">
<line x1="59.889" y1="267.889" x2="67.6671" y2="275.667" stroke="white"/>
<line x1="59.8889" y1="275.667" x2="67.6671" y2="267.889" stroke="white"/>
<line x1="656.889" y1="26.8891" x2="664.667" y2="34.6673" stroke="white"/>
<line x1="656.889" y1="34.6672" x2="664.667" y2="26.889" stroke="white"/>
<line x1="116.889" y1="68.8891" x2="124.667" y2="76.6673" stroke="white"/>
<line x1="116.889" y1="76.6672" x2="124.667" y2="68.889" stroke="white"/>
<line x1="306.889" y1="171.889" x2="314.667" y2="179.667" stroke="white"/>
<line x1="306.889" y1="179.667" x2="314.667" y2="171.889" stroke="white"/>
<line x1="193.889" y1="493.889" x2="201.667" y2="501.667" stroke="white"/>
<line x1="193.889" y1="501.667" x2="201.667" y2="493.889" stroke="white"/>
<line x1="487.889" y1="472.889" x2="495.667" y2="480.667" stroke="white"/>
<line x1="487.889" y1="480.667" x2="495.667" y2="472.889" stroke="white"/>
<line x1="383.889" y1="639.889" x2="391.667" y2="647.667" stroke="white"/>
<line x1="383.889" y1="647.667" x2="391.667" y2="639.889" stroke="white"/>
<line x1="406.889" y1="361.889" x2="414.667" y2="369.667" stroke="white"/>
<line x1="406.889" y1="369.667" x2="414.667" y2="361.889" stroke="white"/>
<line x1="588.889" y1="731.889" x2="596.667" y2="739.667" stroke="white"/>
<line x1="588.889" y1="739.667" x2="596.667" y2="731.889" stroke="white"/>
<line x1="649.889" y1="345.889" x2="657.667" y2="353.667" stroke="white"/>
<line x1="649.889" y1="353.667" x2="657.667" y2="345.889" stroke="white"/>
<line x1="564.889" y1="229.889" x2="572.667" y2="237.667" stroke="white"/>
<line x1="564.889" y1="237.667" x2="572.667" y2="229.889" stroke="white"/>
<line x1="23.889" y1="692.889" x2="31.6671" y2="700.667" stroke="white"/>
<line x1="23.8889" y1="700.667" x2="31.667" y2="692.889" stroke="white"/>
<line x1="140.889" y1="800.889" x2="148.667" y2="808.667" stroke="white"/>
<line x1="140.889" y1="808.667" x2="148.667" y2="800.889" stroke="white"/>
</svg>
